<?xml version="1.0" encoding="UTF-8"?>
<!DOCTYPE svg PUBLIC "-//W3C//DTD SVG 1.1//EN" "http://www.w3.org/Graphics/SVG/1.1/DTD/svg11.dtd">
<svg version="1.1" xmlns="http://www.w3.org/2000/svg" xmlns:xlink="http://www.w3.org/1999/xlink" x="0" y="0" width="100" height="79" viewBox="0, 0, 100, 79">
  <g id="Background">
    <rect x="0" y="0" width="100" height="79" fill="#000000" fill-opacity="0"/>
  </g>
  <g id="Layer_1">
    <g>
      <path d="M90.85,36.283 L85.044,36.283 L85.044,30.474 C85.044,29.374 84.152,28.484 83.053,28.484 C81.953,28.484 81.062,29.374 81.062,30.474 L81.062,36.283 L75.256,36.283 C74.156,36.283 73.265,37.175 73.265,38.275 C73.265,39.373 74.156,40.265 75.256,40.265 L81.062,40.265 L81.062,46.071 C81.062,47.17 81.953,48.062 83.053,48.062 C84.152,48.062 85.044,47.17 85.044,46.071 L85.044,40.265 L90.85,40.265 C91.949,40.265 92.841,39.373 92.841,38.275 C92.841,37.175 91.949,36.283 90.85,36.283 M65.648,55.78 L87.01,55.78 C93.326,55.78 97.003,51.335 97.003,45.785 L97.003,29.795 C97.003,24.406 93.414,19.801 87.01,19.801 L65.742,19.801 C68.882,22.529 69.989,26.776 69.989,29.795 L69.989,45.785 C69.989,50.386 68.369,53.652 65.648,55.78 M64.602,39.665 C64.602,38.414 64.377,37.235 63.934,36.158 C63.489,35.08 62.815,34.09 61.929,33.215 C60.138,31.444 57.969,30.547 55.484,30.547 C53.628,30.547 51.954,31.042 50.501,32.017 L50.501,25.178 C50.501,24.589 50.296,24.092 49.892,23.7 C49.491,23.314 48.999,23.118 48.426,23.118 C47.84,23.118 47.346,23.315 46.954,23.706 C46.565,24.096 46.366,24.592 46.366,25.178 L46.366,39.665 C46.366,42.172 47.265,44.342 49.036,46.113 C50.808,47.885 52.978,48.783 55.484,48.783 C57.969,48.783 60.138,47.886 61.929,46.115 C63.703,44.363 64.602,42.193 64.602,39.665 M43.802,39.666 C43.802,37.159 42.903,34.99 41.13,33.216 C39.338,31.444 37.17,30.547 34.684,30.547 C32.178,30.547 30.008,31.446 28.237,33.217 C26.465,34.99 25.567,37.159 25.567,39.666 C25.567,42.172 26.465,44.341 28.237,46.113 C30.008,47.885 32.178,48.783 34.684,48.783 C35.765,48.783 36.796,48.608 37.748,48.261 C38.441,48.009 39.107,47.671 39.732,47.253 C39.821,47.6 40.002,47.91 40.27,48.179 C40.671,48.58 41.166,48.783 41.743,48.783 C42.308,48.783 42.798,48.58 43.198,48.18 C43.599,47.778 43.802,47.288 43.802,46.724 z M23.285,25.178 C23.285,24.589 23.08,24.093 22.675,23.7 C22.275,23.314 21.782,23.118 21.21,23.118 C20.623,23.118 20.128,23.315 19.738,23.706 C19.347,24.096 19.149,24.591 19.149,25.178 L19.149,32.013 C17.676,31.04 16.002,30.547 14.167,30.547 C11.66,30.547 9.491,31.446 7.719,33.217 C5.947,34.989 5.049,37.159 5.049,39.665 C5.049,42.172 5.947,44.342 7.719,46.113 C9.491,47.885 11.66,48.783 14.167,48.783 C16.652,48.783 18.82,47.886 20.613,46.115 C22.386,44.363 23.285,42.193 23.285,39.665 z M0.01,45.785 L0.01,29.795 C0.01,21.138 5.781,18.258 9.626,17.297 L90.355,0.102 C91.382,-0.224 92.479,0.346 92.803,1.374 C93.129,2.402 92.559,3.498 91.531,3.823 L32.245,16.815 L87.01,16.815 C96.589,16.815 99.99,23.222 99.99,29.795 L99.99,45.785 C99.99,54.846 94.032,58.765 87.024,58.765 L12.99,58.765 C4.233,58.765 0.01,52.113 0.01,45.785 M17.693,36.158 C17.245,35.706 16.712,35.343 16.107,35.078 C15.506,34.816 14.854,34.683 14.167,34.683 C13.469,34.683 12.811,34.816 12.211,35.078 C11.606,35.344 11.075,35.703 10.632,36.15 C10.19,36.598 9.833,37.133 9.574,37.738 C9.315,38.338 9.184,38.987 9.184,39.664 C9.184,40.344 9.315,40.993 9.574,41.592 C9.833,42.197 10.19,42.732 10.632,43.18 C11.075,43.627 11.606,43.987 12.211,44.253 C13.413,44.778 14.906,44.778 16.107,44.253 C16.711,43.988 17.245,43.625 17.693,43.172 C18.141,42.719 18.5,42.185 18.76,41.583 C19.019,40.988 19.149,40.343 19.149,39.664 C19.149,38.988 19.019,38.343 18.76,37.746 C18.5,37.145 18.141,36.611 17.693,36.158 M38.21,36.158 C37.762,35.706 37.229,35.343 36.624,35.078 C36.024,34.816 35.371,34.683 34.685,34.683 C33.986,34.683 33.329,34.816 32.728,35.078 C32.125,35.342 31.594,35.702 31.151,36.15 C30.708,36.597 30.352,37.131 30.09,37.738 C29.832,38.338 29.701,38.987 29.701,39.665 C29.701,40.343 29.832,40.992 30.09,41.592 C30.351,42.199 30.708,42.733 31.151,43.18 C31.593,43.627 32.124,43.988 32.728,44.252 C33.93,44.777 35.422,44.778 36.624,44.252 C37.227,43.988 37.761,43.625 38.211,43.171 C38.659,42.719 39.018,42.184 39.278,41.583 C39.536,40.988 39.667,40.342 39.667,39.665 C39.667,38.989 39.536,38.343 39.278,37.746 C39.017,37.145 38.658,36.61 38.21,36.158 M60.078,37.747 C60.337,38.343 60.468,38.987 60.468,39.664 C60.468,40.343 60.337,40.988 60.078,41.583 C59.818,42.183 59.459,42.717 59.01,43.171 C58.562,43.624 58.028,43.988 57.424,44.252 C56.222,44.777 54.729,44.778 53.528,44.252 C52.924,43.988 52.392,43.627 51.949,43.179 C51.507,42.733 51.151,42.199 50.89,41.592 C50.632,40.993 50.501,40.344 50.501,39.664 C50.501,38.987 50.632,38.338 50.89,37.738 C51.151,37.131 51.507,36.597 51.95,36.151 C52.392,35.703 52.924,35.343 53.528,35.078 C54.129,34.816 54.787,34.683 55.484,34.683 C56.17,34.683 56.823,34.816 57.424,35.078 C58.028,35.343 58.563,35.706 59.01,36.158 C59.458,36.611 59.817,37.145 60.078,37.747" fill="#000000"/>
      <path d="M97.12,73.689 C97.114,73.013 96.994,72.385 96.757,71.808 C96.52,71.23 96.163,70.702 95.686,70.224 C94.717,69.267 93.561,68.788 92.22,68.788 C90.866,68.788 89.711,69.267 88.754,70.224 C87.797,71.181 87.319,72.336 87.319,73.689 C87.319,75.043 87.797,76.198 88.754,77.155 C89.711,78.112 90.866,78.59 92.22,78.59 C93.561,78.59 94.717,78.112 95.686,77.155 C96.642,76.21 97.12,75.054 97.12,73.689 M92.22,70.618 C92.646,70.618 93.045,70.699 93.419,70.863 C93.792,71.026 94.117,71.248 94.394,71.528 C94.671,71.808 94.891,72.133 95.05,72.504 C95.211,72.874 95.291,73.269 95.291,73.689 C95.291,74.109 95.211,74.505 95.05,74.875 C94.891,75.246 94.671,75.571 94.394,75.851 C94.117,76.131 93.792,76.353 93.419,76.516 C93.045,76.68 92.646,76.761 92.22,76.761 C91.788,76.761 91.385,76.68 91.012,76.516 C90.638,76.353 90.315,76.132 90.041,75.855 C89.766,75.578 89.549,75.253 89.388,74.879 C89.228,74.506 89.147,74.109 89.147,73.689 C89.147,73.269 89.228,72.873 89.388,72.499 C89.549,72.126 89.766,71.8 90.041,71.523 C90.315,71.246 90.638,71.026 91.012,70.863 C91.385,70.699 91.788,70.618 92.22,70.618 M85.856,67.046 C85.856,66.749 85.751,66.495 85.541,66.285 C85.331,66.075 85.077,65.97 84.78,65.97 C84.482,65.97 84.228,66.075 84.018,66.285 C83.808,66.495 83.703,66.749 83.703,67.046 C83.703,67.344 83.808,67.598 84.018,67.808 C84.228,68.019 84.482,68.124 84.78,68.124 C85.077,68.124 85.331,68.019 85.541,67.808 C85.751,67.598 85.856,67.344 85.856,67.046 M83.869,77.671 C83.869,77.929 83.958,78.145 84.136,78.323 C84.314,78.501 84.529,78.59 84.78,78.59 C85.031,78.59 85.245,78.501 85.422,78.323 C85.601,78.145 85.692,77.929 85.698,77.671 L85.698,69.708 C85.692,69.45 85.601,69.234 85.422,69.055 C85.245,68.878 85.031,68.788 84.78,68.788 C84.529,68.788 84.314,68.878 84.136,69.055 C83.958,69.234 83.869,69.45 83.869,69.708 L83.869,77.671 M77.04,68.788 C75.685,68.788 74.531,69.267 73.574,70.224 C72.617,71.181 72.139,72.336 72.139,73.69 C72.139,75.043 72.617,76.198 73.574,77.155 C74.531,78.112 75.685,78.59 77.04,78.59 C78.381,78.59 79.537,78.112 80.505,77.155 C81.461,76.21 81.94,75.054 81.94,73.69 L81.94,65.498 C81.94,65.235 81.851,65.018 81.674,64.845 C81.495,64.674 81.278,64.588 81.021,64.588 C80.759,64.588 80.541,64.674 80.37,64.845 C80.197,65.018 80.111,65.235 80.111,65.498 L80.111,69.865 C79.224,69.148 78.2,68.788 77.04,68.788 M80.111,73.69 C80.111,74.109 80.031,74.505 79.871,74.875 C79.71,75.246 79.491,75.571 79.215,75.851 C78.937,76.131 78.612,76.353 78.239,76.516 C77.865,76.68 77.465,76.761 77.04,76.761 C76.608,76.761 76.205,76.68 75.832,76.516 C75.458,76.353 75.135,76.132 74.861,75.855 C74.586,75.578 74.369,75.253 74.208,74.879 C74.048,74.506 73.967,74.109 73.967,73.69 C73.967,73.269 74.048,72.873 74.208,72.499 C74.369,72.126 74.586,71.8 74.861,71.523 C75.135,71.246 75.458,71.026 75.832,70.863 C76.205,70.699 76.608,70.618 77.04,70.618 C77.465,70.618 77.865,70.699 78.239,70.863 C78.612,71.026 78.937,71.248 79.215,71.528 C79.491,71.808 79.71,72.133 79.871,72.504 C80.031,72.874 80.111,73.269 80.111,73.69 M68.871,77.68 C68.871,77.93 68.959,78.145 69.138,78.323 C69.315,78.501 69.533,78.59 69.79,78.59 C70.04,78.59 70.255,78.501 70.433,78.323 C70.611,78.145 70.7,77.93 70.7,77.68 L70.7,73.689 C70.7,72.336 70.221,71.181 69.265,70.224 C68.296,69.267 67.142,68.788 65.799,68.788 C64.446,68.788 63.29,69.267 62.333,70.224 C61.376,71.181 60.898,72.336 60.898,73.689 C60.898,75.043 61.376,76.198 62.333,77.155 C63.29,78.112 64.446,78.59 65.799,78.59 C66.382,78.59 66.931,78.497 67.444,78.31 C67.958,78.123 68.433,77.855 68.871,77.505 L68.871,77.68 M65.799,70.618 C66.225,70.618 66.625,70.699 66.998,70.863 C67.372,71.026 67.696,71.247 67.974,71.528 C68.251,71.808 68.469,72.133 68.63,72.504 C68.79,72.874 68.871,73.269 68.871,73.689 C68.871,74.109 68.79,74.505 68.63,74.875 C68.469,75.246 68.251,75.571 67.974,75.851 C67.696,76.131 67.372,76.353 66.998,76.516 C66.625,76.68 66.225,76.761 65.799,76.761 C65.367,76.761 64.965,76.68 64.591,76.516 C64.217,76.353 63.894,76.132 63.62,75.855 C63.346,75.578 63.129,75.253 62.968,74.879 C62.807,74.506 62.727,74.109 62.727,73.689 C62.727,73.269 62.807,72.873 62.968,72.499 C63.129,72.126 63.346,71.8 63.62,71.523 C63.894,71.246 64.217,71.026 64.591,70.863 C64.965,70.699 65.367,70.618 65.799,70.618 M55.221,69.699 C55.221,69.448 55.132,69.234 54.955,69.055 C54.776,68.878 54.562,68.788 54.311,68.788 C54.055,68.788 53.837,68.878 53.66,69.055 C53.482,69.234 53.392,69.448 53.392,69.699 L53.392,77.68 C53.392,77.93 53.482,78.145 53.66,78.323 C53.837,78.501 54.055,78.59 54.311,78.59 C54.562,78.59 54.776,78.501 54.955,78.323 C55.132,78.145 55.221,77.93 55.221,77.68 L55.221,73.69 C55.221,73.264 55.302,72.863 55.462,72.49 C55.623,72.118 55.841,71.791 56.118,71.515 C56.396,71.237 56.721,71.019 57.094,70.858 C57.468,70.698 57.867,70.618 58.293,70.618 C58.725,70.618 59.125,70.691 59.493,70.836 C59.638,70.901 59.766,70.933 59.878,70.933 C60.006,70.933 60.125,70.909 60.236,70.863 C60.347,70.816 60.443,70.75 60.526,70.666 C60.607,70.581 60.672,70.484 60.722,70.372 C60.772,70.262 60.796,70.142 60.796,70.014 C60.796,69.763 60.714,69.559 60.551,69.401 C60.388,69.243 60.182,69.12 59.934,69.029 C59.686,68.938 59.415,68.876 59.12,68.841 C58.826,68.806 58.55,68.788 58.293,68.788 C57.71,68.788 57.161,68.882 56.648,69.068 C56.135,69.255 55.659,69.523 55.221,69.874 L55.221,69.699 M42.579,69.699 C42.579,69.448 42.491,69.234 42.313,69.055 C42.134,68.878 41.92,68.788 41.669,68.788 C41.412,68.788 41.195,68.878 41.017,69.055 C40.84,69.234 40.75,69.448 40.75,69.699 L40.75,77.68 C40.75,77.93 40.84,78.145 41.017,78.323 C41.195,78.501 41.412,78.59 41.669,78.59 C41.92,78.59 42.134,78.501 42.313,78.323 C42.491,78.145 42.579,77.93 42.579,77.68 L42.579,73.69 C42.579,73.264 42.66,72.863 42.82,72.49 C42.98,72.118 43.199,71.791 43.477,71.515 C43.754,71.237 44.079,71.019 44.452,70.858 C44.826,70.698 45.225,70.618 45.651,70.618 C46.083,70.618 46.483,70.691 46.85,70.836 C46.997,70.901 47.124,70.933 47.236,70.933 C47.363,70.933 47.483,70.909 47.594,70.863 C47.705,70.816 47.801,70.75 47.883,70.666 C47.965,70.581 48.03,70.484 48.08,70.372 C48.13,70.262 48.154,70.142 48.154,70.014 C48.154,69.763 48.072,69.559 47.909,69.401 C47.746,69.243 47.54,69.12 47.292,69.029 C47.044,68.938 46.773,68.876 46.479,68.841 C46.183,68.806 45.908,68.788 45.651,68.788 C45.068,68.788 44.52,68.882 44.006,69.068 C43.492,69.255 43.017,69.523 42.579,69.874 L42.579,69.699 M31.483,73.374 C31.483,73.001 31.554,72.648 31.697,72.315 C31.841,71.983 32.037,71.691 32.288,71.44 C32.539,71.189 32.829,70.993 33.159,70.849 C33.489,70.707 33.843,70.635 34.222,70.635 C34.596,70.635 34.949,70.708 35.282,70.854 C35.613,71 35.904,71.197 36.152,71.444 C36.4,71.692 36.597,71.983 36.743,72.315 C36.888,72.648 36.961,73.001 36.961,73.374 L36.961,77.671 C36.961,77.928 37.051,78.145 37.229,78.323 C37.406,78.501 37.622,78.59 37.871,78.59 C38.122,78.59 38.337,78.501 38.515,78.323 C38.693,78.145 38.785,77.928 38.79,77.671 L38.79,73.374 C38.79,72.744 38.668,72.151 38.423,71.593 C38.178,71.036 37.846,70.552 37.425,70.14 C37.005,69.729 36.519,69.404 35.968,69.165 C35.417,68.926 34.835,68.806 34.222,68.806 C33.172,68.806 32.259,69.107 31.483,69.707 L31.483,65.507 C31.477,65.25 31.385,65.032 31.207,64.855 C31.029,64.676 30.815,64.588 30.564,64.588 C30.313,64.588 30.099,64.676 29.921,64.855 C29.743,65.032 29.654,65.25 29.654,65.507 L29.654,77.671 C29.654,77.928 29.743,78.145 29.921,78.323 C30.099,78.501 30.313,78.59 30.564,78.59 C30.82,78.59 31.038,78.501 31.216,78.323 C31.394,78.145 31.483,77.928 31.483,77.671 z M25.888,75.833 C25.66,75.84 25.459,75.915 25.283,76.061 C25.009,76.294 24.712,76.469 24.391,76.586 C24.07,76.703 23.717,76.761 23.333,76.761 C22.994,76.761 22.669,76.709 22.356,76.604 C22.044,76.499 21.758,76.351 21.499,76.162 C21.239,75.972 21.013,75.744 20.82,75.479 C20.629,75.214 20.482,74.92 20.383,74.599 L27.314,74.599 C27.571,74.599 27.788,74.513 27.966,74.341 C28.144,74.169 28.233,73.952 28.233,73.689 C28.233,73.013 28.113,72.384 27.874,71.803 C27.635,71.223 27.276,70.697 26.798,70.224 C25.83,69.267 24.674,68.788 23.333,68.788 C21.979,68.788 20.823,69.267 19.867,70.224 C18.91,71.181 18.431,72.336 18.431,73.689 C18.431,75.043 18.91,76.198 19.867,77.155 C20.823,78.112 21.979,78.59 23.333,78.59 C24.563,78.59 25.631,78.193 26.535,77.4 C26.71,77.219 26.798,77 26.798,76.743 C26.798,76.481 26.712,76.263 26.54,76.091 C26.367,75.919 26.151,75.833 25.888,75.833 M20.383,72.779 C20.477,72.458 20.619,72.165 20.812,71.9 C21.004,71.634 21.232,71.407 21.494,71.217 C21.757,71.028 22.046,70.88 22.361,70.775 C22.676,70.67 22.999,70.618 23.333,70.618 C23.665,70.618 23.987,70.67 24.299,70.775 C24.611,70.88 24.898,71.028 25.157,71.217 C25.416,71.407 25.644,71.634 25.84,71.9 C26.035,72.165 26.182,72.458 26.281,72.779 z M16.903,77.671 C16.903,77.928 16.815,78.145 16.636,78.323 C16.459,78.501 16.245,78.59 15.994,78.59 C15.737,78.59 15.521,78.501 15.346,78.323 C15.171,78.145 15.084,77.928 15.084,77.671 L15.084,72.692 C15.084,72.411 15.03,72.146 14.922,71.895 C14.814,71.645 14.666,71.424 14.479,71.234 C14.293,71.045 14.073,70.895 13.819,70.784 C13.565,70.673 13.292,70.617 13.001,70.617 C12.715,70.617 12.446,70.673 12.196,70.784 C11.945,70.895 11.724,71.044 11.535,71.23 C11.345,71.417 11.197,71.636 11.089,71.887 C10.98,72.137 10.926,72.406 10.926,72.692 L10.926,77.671 C10.926,77.928 10.838,78.145 10.66,78.323 C10.482,78.501 10.267,78.59 10.017,78.59 C9.76,78.59 9.543,78.501 9.364,78.323 C9.187,78.145 9.097,77.928 9.097,77.671 L9.097,72.692 C9.097,72.406 9.042,72.137 8.931,71.887 C8.821,71.636 8.672,71.417 8.485,71.23 C8.298,71.044 8.079,70.895 7.828,70.784 C7.578,70.673 7.309,70.617 7.023,70.617 C6.738,70.617 6.47,70.672 6.219,70.78 C5.968,70.887 5.747,71.036 5.557,71.226 C5.368,71.416 5.219,71.636 5.111,71.887 C5.003,72.137 4.95,72.406 4.95,72.692 L4.95,77.671 C4.95,77.928 4.861,78.145 4.682,78.323 C4.505,78.501 4.29,78.59 4.039,78.59 C3.783,78.59 3.565,78.501 3.387,78.323 C3.209,78.145 3.12,77.928 3.12,77.671 L3.12,69.699 C3.12,69.448 3.209,69.234 3.387,69.055 C3.565,68.878 3.78,68.788 4.03,68.788 C4.235,68.788 4.416,68.846 4.574,68.959 C4.731,69.073 4.839,69.223 4.896,69.41 C5.522,68.995 6.23,68.788 7.023,68.788 C7.607,68.788 8.155,68.904 8.668,69.134 C9.182,69.365 9.631,69.713 10.017,70.18 C10.827,69.252 11.822,68.788 13.001,68.788 C13.531,68.788 14.035,68.892 14.51,69.099 C14.986,69.307 15.4,69.586 15.753,69.939 C16.106,70.292 16.386,70.707 16.593,71.182 C16.8,71.658 16.903,72.161 16.903,72.692 z" fill="#000000"/>
    </g>
  </g>
</svg>
