<?xml version="1.0" encoding="UTF-8"?>
<!DOCTYPE svg PUBLIC "-//W3C//DTD SVG 1.1//EN" "http://www.w3.org/Graphics/SVG/1.1/DTD/svg11.dtd">
<svg version="1.1" xmlns="http://www.w3.org/2000/svg" xmlns:xlink="http://www.w3.org/1999/xlink" x="0" y="0" width="100" height="59" viewBox="0, 0, 100, 59">
  <g id="Background">
    <rect x="0" y="0" width="100" height="59" fill="#000000" fill-opacity="0"/>
  </g>
  <defs>
    <clipPath id="Clip_1">
      <path d="M0,0 L100,0 L100,58.735 L0,58.735 z"/>
    </clipPath>
  </defs>
  <g id="Layer_1">
    <g clip-path="url(#Clip_1)">
      <path d="M90.85,36.283 L85.044,36.283 L85.044,30.474 C85.044,29.375 84.152,28.484 83.053,28.484 C81.953,28.484 81.062,29.375 81.062,30.474 L81.062,36.283 L75.256,36.283 C74.156,36.283 73.265,37.174 73.265,38.274 C73.265,39.373 74.156,40.265 75.256,40.265 L81.062,40.265 L81.062,46.071 C81.062,47.17 81.953,48.062 83.053,48.062 C84.152,48.062 85.044,47.17 85.044,46.071 L85.044,40.265 L90.85,40.265 C91.949,40.265 92.841,39.373 92.841,38.274 C92.841,37.174 91.949,36.283 90.85,36.283 M65.648,55.779 L87.01,55.779 C93.326,55.779 97.003,51.335 97.003,45.785 L97.003,29.795 C97.003,24.406 93.414,19.801 87.01,19.801 L65.742,19.801 C68.882,22.529 69.989,26.776 69.989,29.795 L69.989,45.785 C69.989,50.386 68.369,53.652 65.648,55.779 M64.602,39.665 C64.602,38.414 64.377,37.234 63.934,36.158 C63.489,35.08 62.815,34.09 61.929,33.215 C60.138,31.444 57.969,30.547 55.484,30.547 C53.628,30.547 51.954,31.042 50.501,32.017 L50.501,25.178 C50.501,24.589 50.296,24.092 49.892,23.7 C49.491,23.314 48.999,23.118 48.426,23.118 C47.84,23.118 47.346,23.316 46.954,23.706 C46.565,24.096 46.366,24.592 46.366,25.178 L46.366,39.665 C46.366,42.172 47.265,44.342 49.036,46.112 C50.808,47.885 52.978,48.783 55.484,48.783 C57.969,48.783 60.138,47.885 61.929,46.115 C63.703,44.363 64.602,42.193 64.602,39.665 M43.802,39.666 C43.802,37.159 42.903,34.99 41.13,33.216 C39.338,31.444 37.17,30.547 34.684,30.547 C32.178,30.547 30.008,31.446 28.237,33.217 C26.465,34.99 25.567,37.159 25.567,39.666 C25.567,42.172 26.465,44.341 28.237,46.113 C30.008,47.885 32.178,48.783 34.684,48.783 C35.765,48.783 36.796,48.608 37.748,48.26 C38.441,48.009 39.107,47.671 39.732,47.253 C39.821,47.6 40.002,47.91 40.27,48.179 C40.671,48.58 41.166,48.783 41.743,48.783 C42.308,48.783 42.798,48.58 43.198,48.18 C43.599,47.778 43.802,47.288 43.802,46.723 z M23.285,25.178 C23.285,24.589 23.08,24.093 22.675,23.7 C22.275,23.314 21.782,23.118 21.21,23.118 C20.623,23.118 20.128,23.316 19.738,23.706 C19.347,24.096 19.149,24.591 19.149,25.178 L19.149,32.013 C17.676,31.04 16.002,30.547 14.167,30.547 C11.66,30.547 9.491,31.446 7.719,33.217 C5.947,34.989 5.049,37.159 5.049,39.665 C5.049,42.172 5.947,44.342 7.719,46.113 C9.491,47.885 11.661,48.783 14.167,48.783 C16.652,48.783 18.82,47.885 20.613,46.115 C22.386,44.363 23.285,42.193 23.285,39.665 z M0.01,45.785 L0.01,29.795 C0.01,21.139 5.781,18.258 9.626,17.298 L90.355,0.101 C91.382,-0.224 92.479,0.346 92.803,1.374 C93.129,2.402 92.559,3.498 91.531,3.823 L32.245,16.815 L87.01,16.815 C96.589,16.815 99.99,23.222 99.99,29.795 L99.99,45.785 C99.99,54.846 94.032,58.764 87.024,58.764 L12.99,58.764 C4.233,58.764 0.01,52.112 0.01,45.785 M17.693,36.158 C17.245,35.705 16.712,35.343 16.107,35.078 C15.506,34.816 14.854,34.683 14.167,34.683 C13.469,34.683 12.812,34.816 12.211,35.078 C11.606,35.344 11.075,35.703 10.632,36.15 C10.19,36.598 9.833,37.132 9.574,37.737 C9.315,38.338 9.184,38.987 9.184,39.664 C9.184,40.344 9.315,40.993 9.574,41.592 C9.833,42.197 10.19,42.731 10.632,43.179 C11.075,43.626 11.606,43.987 12.211,44.253 C13.413,44.778 14.906,44.778 16.107,44.253 C16.711,43.988 17.245,43.625 17.693,43.172 C18.141,42.719 18.5,42.185 18.76,41.583 C19.019,40.988 19.149,40.342 19.149,39.664 C19.149,38.988 19.019,38.342 18.76,37.746 C18.5,37.145 18.141,36.611 17.693,36.158 M38.21,36.158 C37.763,35.706 37.229,35.343 36.624,35.078 C36.024,34.816 35.371,34.682 34.685,34.682 C33.986,34.682 33.329,34.816 32.728,35.078 C32.125,35.342 31.594,35.702 31.151,36.15 C30.708,36.597 30.352,37.131 30.09,37.737 C29.832,38.338 29.701,38.987 29.701,39.665 C29.701,40.343 29.832,40.991 30.09,41.592 C30.351,42.199 30.708,42.732 31.151,43.18 C31.593,43.627 32.124,43.988 32.728,44.252 C33.93,44.777 35.422,44.778 36.624,44.252 C37.228,43.988 37.761,43.625 38.211,43.171 C38.659,42.719 39.018,42.184 39.278,41.583 C39.536,40.988 39.667,40.342 39.667,39.665 C39.667,38.989 39.536,38.343 39.278,37.746 C39.018,37.145 38.658,36.61 38.21,36.158 M60.078,37.747 C60.337,38.342 60.468,38.987 60.468,39.664 C60.468,40.342 60.337,40.988 60.078,41.583 C59.818,42.183 59.459,42.717 59.01,43.171 C58.562,43.624 58.028,43.988 57.424,44.251 C56.222,44.777 54.729,44.778 53.528,44.251 C52.924,43.988 52.392,43.626 51.949,43.179 C51.507,42.733 51.151,42.199 50.89,41.592 C50.632,40.993 50.501,40.344 50.501,39.664 C50.501,38.987 50.632,38.338 50.89,37.738 C51.151,37.131 51.507,36.597 51.95,36.151 C52.392,35.703 52.924,35.343 53.528,35.078 C54.129,34.816 54.787,34.683 55.484,34.683 C56.17,34.683 56.823,34.816 57.424,35.078 C58.028,35.343 58.563,35.706 59.01,36.158 C59.458,36.611 59.817,37.145 60.078,37.747" fill="#000000"/>
    </g>
  </g>
</svg>
