<?xml version="1.0" encoding="UTF-8"?>
<!DOCTYPE svg PUBLIC "-//W3C//DTD SVG 1.1//EN" "http://www.w3.org/Graphics/SVG/1.1/DTD/svg11.dtd">
<svg version="1.1" xmlns="http://www.w3.org/2000/svg" xmlns:xlink="http://www.w3.org/1999/xlink" x="0" y="0" width="290" height="59" viewBox="0, 0, 290, 59">
  <g id="Background">
    <rect x="0" y="0" width="290" height="59" fill="#000000" fill-opacity="0"/>
  </g>
  <defs>
    <linearGradient id="Gradient_1" gradientUnits="userSpaceOnUse" x1="0.01" y1="29.387" x2="99.99" y2="29.387">
      <stop offset="0" stop-color="#00BDD2"/>
      <stop offset="1" stop-color="#86DD25"/>
    </linearGradient>
  </defs>
  <g id="Layer_1">
    <path d="M12.99,58.464 C4.278,58.464 0.31,51.892 0.31,45.785 L0.31,29.795 C0.31,21.644 5.416,18.659 9.699,17.589 L90.417,0.395 C90.608,0.336 90.776,0.31 90.944,0.31 C91.667,0.31 92.3,0.774 92.518,1.465 C92.792,2.332 92.309,3.262 91.44,3.537 L32.181,16.522 C32.031,16.555 31.93,16.695 31.946,16.847 C31.963,17 32.092,17.116 32.245,17.116 L87.01,17.116 C94.95,17.116 99.69,21.855 99.69,29.795 L99.69,45.785 C99.69,57.55 89.996,58.464 87.024,58.464 z" fill="#FFFFFF"/>
    <path d="M90.355,0.102 L9.626,17.297 C5.781,18.258 0.01,21.138 0.01,29.795 L0.01,29.795 L0.01,45.785 C0.01,51.869 3.914,58.252 11.998,58.735 L11.998,58.735 L88.061,58.735 C94.61,58.362 99.99,54.396 99.99,45.785 L99.99,45.785 L99.99,29.795 C99.99,23.222 96.59,16.815 87.01,16.815 L87.01,16.815 L32.245,16.815 L91.531,3.823 C92.559,3.498 93.129,2.402 92.804,1.374 L92.804,1.374 C92.541,0.542 91.773,0.01 90.944,0.01 L90.944,0.01 C90.749,0.01 90.551,0.04 90.355,0.102 M69.989,45.785 L69.989,29.795 C69.989,26.776 68.883,22.529 65.742,19.801 L65.742,19.801 L87.01,19.801 C93.415,19.801 97.004,24.406 97.004,29.795 L97.004,29.795 L97.004,45.785 C97.004,51.335 93.326,55.779 87.01,55.779 L87.01,55.779 L65.648,55.779 C68.369,53.652 69.989,50.385 69.989,45.785 M49.036,46.113 C47.265,44.342 46.366,42.172 46.366,39.665 L46.366,39.665 L46.366,25.177 C46.366,24.592 46.565,24.096 46.954,23.706 L46.954,23.706 C47.346,23.315 47.84,23.118 48.426,23.118 L48.426,23.118 C48.999,23.118 49.491,23.314 49.892,23.7 L49.892,23.7 C50.296,24.092 50.501,24.589 50.501,25.177 L50.501,25.177 L50.501,32.017 C51.954,31.042 53.628,30.547 55.485,30.547 L55.485,30.547 C57.969,30.547 60.138,31.445 61.929,33.215 L61.929,33.215 C62.815,34.09 63.489,35.08 63.934,36.158 L63.934,36.158 C64.378,37.235 64.602,38.414 64.602,39.665 L64.602,39.665 C64.602,42.193 63.703,44.363 61.929,46.115 L61.929,46.115 C60.138,47.885 57.969,48.783 55.485,48.783 L55.485,48.783 C52.978,48.783 50.808,47.885 49.036,46.113 M19.149,25.177 C19.149,24.591 19.347,24.096 19.738,23.706 L19.738,23.706 C20.128,23.315 20.623,23.118 21.21,23.118 L21.21,23.118 C21.782,23.118 22.275,23.314 22.675,23.7 L22.675,23.7 C23.08,24.093 23.285,24.589 23.285,25.177 L23.285,25.177 L23.285,39.665 C23.285,42.193 22.386,44.363 20.613,46.115 L20.613,46.115 C18.82,47.885 16.651,48.783 14.167,48.783 L14.167,48.783 C11.661,48.783 9.491,47.885 7.719,46.113 L7.719,46.113 C5.947,44.342 5.049,42.172 5.049,39.665 L5.049,39.665 C5.049,37.159 5.947,34.989 7.719,33.217 L7.719,33.217 C9.491,31.446 11.66,30.547 14.167,30.547 L14.167,30.547 C16.002,30.547 17.677,31.04 19.149,32.014 L19.149,32.014 z M28.237,46.113 C26.465,44.341 25.567,42.172 25.567,39.666 L25.567,39.666 C25.567,37.159 26.465,34.99 28.237,33.217 L28.237,33.217 C30.008,31.446 32.178,30.547 34.684,30.547 L34.684,30.547 C37.17,30.547 39.338,31.445 41.13,33.216 L41.13,33.216 C42.903,34.99 43.802,37.159 43.802,39.666 L43.802,39.666 L43.802,46.723 C43.802,47.288 43.599,47.778 43.198,48.18 L43.198,48.18 C42.798,48.58 42.308,48.783 41.743,48.783 L41.743,48.783 C41.166,48.783 40.671,48.58 40.27,48.179 L40.27,48.179 C40.002,47.91 39.822,47.6 39.732,47.253 L39.732,47.253 C39.107,47.671 38.441,48.009 37.748,48.261 L37.748,48.261 C36.796,48.608 35.766,48.783 34.684,48.783 L34.684,48.783 C32.178,48.783 30.008,47.885 28.237,46.113 M81.062,30.474 L81.062,36.283 L75.256,36.283 C74.156,36.283 73.265,37.175 73.265,38.274 L73.265,38.274 C73.265,39.373 74.156,40.265 75.256,40.265 L75.256,40.265 L81.062,40.265 L81.062,46.071 C81.062,47.17 81.954,48.062 83.053,48.062 L83.053,48.062 C84.152,48.062 85.044,47.17 85.044,46.071 L85.044,46.071 L85.044,40.265 L90.85,40.265 C91.949,40.265 92.841,39.373 92.841,38.274 L92.841,38.274 C92.841,37.175 91.949,36.283 90.85,36.283 L90.85,36.283 L85.044,36.283 L85.044,30.474 C85.044,29.374 84.152,28.484 83.053,28.484 L83.053,28.484 C81.954,28.484 81.062,29.374 81.062,30.474 M32.728,35.078 C32.125,35.342 31.594,35.702 31.151,36.15 L31.151,36.15 C30.708,36.597 30.352,37.131 30.091,37.737 L30.091,37.737 C29.832,38.338 29.701,38.987 29.701,39.665 L29.701,39.665 C29.701,40.343 29.832,40.991 30.091,41.592 L30.091,41.592 C30.352,42.199 30.708,42.733 31.151,43.18 L31.151,43.18 C31.593,43.627 32.124,43.988 32.728,44.252 L32.728,44.252 C33.93,44.777 35.422,44.778 36.624,44.252 L36.624,44.252 C37.228,43.989 37.761,43.625 38.211,43.171 L38.211,43.171 C38.66,42.719 39.019,42.184 39.278,41.583 L39.278,41.583 C39.537,40.988 39.667,40.342 39.667,39.665 L39.667,39.665 C39.667,38.989 39.537,38.343 39.278,37.746 L39.278,37.746 C39.018,37.145 38.658,36.61 38.21,36.158 L38.21,36.158 C37.763,35.706 37.229,35.343 36.624,35.078 L36.624,35.078 C36.024,34.816 35.371,34.683 34.685,34.683 L34.685,34.683 C33.987,34.683 33.329,34.816 32.728,35.078 M53.528,35.078 C52.924,35.343 52.392,35.704 51.951,36.151 L51.951,36.151 C51.507,36.596 51.151,37.131 50.89,37.738 L50.89,37.738 C50.632,38.338 50.501,38.987 50.501,39.664 L50.501,39.664 C50.501,40.344 50.632,40.993 50.89,41.592 L50.89,41.592 C51.151,42.199 51.507,42.733 51.95,43.179 L51.95,43.179 C52.392,43.627 52.924,43.989 53.528,44.252 L53.528,44.252 C54.729,44.778 56.222,44.777 57.424,44.252 L57.424,44.252 C58.028,43.989 58.562,43.624 59.01,43.171 L59.01,43.171 C59.459,42.718 59.818,42.183 60.078,41.583 L60.078,41.583 C60.337,40.988 60.468,40.342 60.468,39.664 L60.468,39.664 C60.468,38.988 60.337,38.342 60.078,37.747 L60.078,37.747 C59.817,37.145 59.458,36.611 59.01,36.158 L59.01,36.158 C58.563,35.706 58.028,35.343 57.424,35.078 L57.424,35.078 C56.823,34.816 56.17,34.683 55.485,34.683 L55.485,34.683 C54.787,34.683 54.129,34.816 53.528,35.078 M12.211,35.078 C11.606,35.343 11.075,35.704 10.632,36.15 L10.632,36.15 C10.19,36.598 9.833,37.133 9.574,37.737 L9.574,37.737 C9.315,38.338 9.184,38.987 9.184,39.664 L9.184,39.664 C9.184,40.344 9.315,40.993 9.574,41.592 L9.574,41.592 C9.833,42.197 10.19,42.731 10.632,43.179 L10.632,43.179 C11.075,43.627 11.606,43.987 12.211,44.252 L12.211,44.252 C13.413,44.778 14.906,44.778 16.107,44.252 L16.107,44.252 C16.711,43.989 17.245,43.625 17.693,43.172 L17.693,43.172 C18.141,42.719 18.5,42.185 18.76,41.583 L18.76,41.583 C19.019,40.988 19.149,40.342 19.149,39.664 L19.149,39.664 C19.149,38.988 19.019,38.342 18.76,37.747 L18.76,37.747 C18.5,37.145 18.141,36.611 17.693,36.158 L17.693,36.158 C17.245,35.705 16.712,35.343 16.107,35.078 L16.107,35.078 C15.507,34.816 14.854,34.683 14.167,34.683 L14.167,34.683 C13.47,34.683 12.811,34.816 12.211,35.078" fill="url(#Gradient_1)"/>
    <path d="M289.99,39.622 C289.979,38.396 289.76,37.261 289.332,36.215 C288.903,35.167 288.256,34.212 287.391,33.345 C285.637,31.613 283.544,30.745 281.113,30.745 C278.661,30.745 276.569,31.613 274.836,33.345 C273.103,35.078 272.235,37.171 272.235,39.622 C272.235,42.074 273.103,44.166 274.836,45.9 C276.569,47.633 278.661,48.499 281.113,48.499 C283.544,48.499 285.637,47.633 287.391,45.9 C289.123,44.188 289.99,42.096 289.99,39.622 M281.113,34.059 C281.885,34.059 282.608,34.207 283.285,34.502 C283.961,34.798 284.55,35.2 285.052,35.707 C285.553,36.215 285.951,36.804 286.24,37.475 C286.532,38.145 286.676,38.862 286.676,39.622 C286.676,40.383 286.532,41.1 286.24,41.77 C285.951,42.442 285.553,43.031 285.052,43.538 C284.55,44.045 283.961,44.447 283.285,44.742 C282.608,45.039 281.885,45.186 281.113,45.186 C280.331,45.186 279.601,45.039 278.925,44.742 C278.248,44.447 277.663,44.047 277.166,43.546 C276.668,43.044 276.275,42.454 275.985,41.778 C275.694,41.102 275.549,40.383 275.549,39.622 C275.549,38.862 275.694,38.143 275.985,37.467 C276.275,36.791 276.668,36.201 277.166,35.699 C277.663,35.197 278.248,34.798 278.925,34.502 C279.601,34.207 280.331,34.059 281.113,34.059 M269.587,27.591 C269.587,27.052 269.396,26.592 269.016,26.212 C268.636,25.831 268.176,25.641 267.637,25.641 C267.097,25.641 266.638,25.831 266.258,26.212 C265.877,26.592 265.687,27.052 265.687,27.591 C265.687,28.13 265.877,28.59 266.258,28.97 C266.638,29.351 267.097,29.541 267.637,29.541 C268.176,29.541 268.636,29.351 269.016,28.97 C269.396,28.59 269.587,28.13 269.587,27.591 M265.988,46.835 C265.988,47.301 266.149,47.693 266.471,48.016 C266.794,48.338 267.183,48.499 267.637,48.499 C268.092,48.499 268.479,48.338 268.801,48.016 C269.125,47.693 269.29,47.301 269.301,46.835 L269.301,32.411 C269.29,31.944 269.125,31.552 268.801,31.229 C268.479,30.907 268.092,30.745 267.637,30.745 C267.183,30.745 266.794,30.907 266.471,31.229 C266.149,31.552 265.988,31.944 265.988,32.411 L265.988,46.835 M253.618,30.745 C251.165,30.745 249.073,31.612 247.34,33.345 C245.607,35.078 244.74,37.171 244.74,39.623 C244.74,42.074 245.607,44.166 247.34,45.899 C249.073,47.633 251.165,48.499 253.618,48.499 C256.047,48.499 258.141,47.633 259.895,45.899 C261.627,44.188 262.494,42.096 262.494,39.623 L262.494,24.785 C262.494,24.31 262.333,23.916 262.011,23.604 C261.688,23.293 261.295,23.137 260.83,23.137 C260.355,23.137 259.96,23.293 259.649,23.604 C259.337,23.916 259.181,24.31 259.181,24.785 L259.181,32.695 C257.574,31.396 255.719,30.745 253.618,30.745 M259.181,39.623 C259.181,40.383 259.036,41.1 258.746,41.77 C258.455,42.442 258.058,43.031 257.557,43.538 C257.054,44.045 256.465,44.447 255.789,44.742 C255.113,45.039 254.389,45.186 253.618,45.186 C252.835,45.186 252.106,45.039 251.43,44.742 C250.753,44.447 250.167,44.047 249.671,43.546 C249.173,43.044 248.78,42.454 248.489,41.778 C248.198,41.102 248.053,40.383 248.053,39.623 C248.053,38.862 248.198,38.144 248.489,37.467 C248.78,36.791 249.173,36.201 249.671,35.699 C250.167,35.197 250.753,34.798 251.43,34.502 C252.106,34.207 252.835,34.059 253.618,34.059 C254.389,34.059 255.113,34.207 255.789,34.502 C256.465,34.798 257.054,35.2 257.557,35.707 C258.058,36.215 258.455,36.804 258.746,37.475 C259.036,38.145 259.181,38.862 259.181,39.623 M238.821,46.851 C238.821,47.305 238.982,47.693 239.304,48.016 C239.626,48.338 240.02,48.499 240.486,48.499 C240.939,48.499 241.328,48.338 241.651,48.016 C241.973,47.693 242.134,47.305 242.134,46.851 L242.134,39.622 C242.134,37.171 241.267,35.078 239.535,33.345 C237.78,31.613 235.688,30.745 233.257,30.745 C230.805,30.745 228.712,31.613 226.979,33.345 C225.247,35.078 224.38,37.171 224.38,39.622 C224.38,42.074 225.247,44.166 226.979,45.9 C228.712,47.634 230.805,48.499 233.257,48.499 C234.314,48.499 235.307,48.33 236.237,47.992 C237.167,47.654 238.028,47.167 238.821,46.534 L238.821,46.851 M233.257,34.059 C234.028,34.059 234.753,34.207 235.429,34.502 C236.105,34.798 236.694,35.199 237.197,35.707 C237.698,36.215 238.095,36.804 238.385,37.475 C238.676,38.145 238.821,38.861 238.821,39.622 C238.821,40.384 238.676,41.1 238.385,41.77 C238.095,42.442 237.698,43.031 237.197,43.538 C236.694,44.045 236.105,44.447 235.429,44.742 C234.753,45.039 234.028,45.186 233.257,45.186 C232.475,45.186 231.746,45.039 231.069,44.742 C230.393,44.447 229.807,44.047 229.31,43.546 C228.813,43.044 228.42,42.455 228.13,41.778 C227.838,41.102 227.693,40.384 227.693,39.622 C227.693,38.861 227.838,38.143 228.13,37.467 C228.42,36.791 228.813,36.201 229.31,35.699 C229.807,35.197 230.393,34.798 231.069,34.502 C231.746,34.207 232.475,34.059 233.257,34.059 M214.098,32.395 C214.098,31.94 213.937,31.552 213.614,31.229 C213.292,30.907 212.904,30.745 212.45,30.745 C211.985,30.745 211.591,30.907 211.269,31.229 C210.946,31.552 210.785,31.94 210.785,32.395 L210.785,46.851 C210.785,47.305 210.946,47.693 211.269,48.016 C211.591,48.338 211.985,48.499 212.45,48.499 C212.904,48.499 213.292,48.338 213.614,48.016 C213.937,47.693 214.098,47.305 214.098,46.851 L214.098,39.623 C214.098,38.851 214.243,38.127 214.534,37.451 C214.825,36.775 215.221,36.185 215.723,35.683 C216.226,35.181 216.815,34.785 217.491,34.494 C218.167,34.204 218.891,34.059 219.662,34.059 C220.444,34.059 221.169,34.191 221.834,34.455 C222.098,34.571 222.33,34.629 222.531,34.629 C222.764,34.629 222.98,34.587 223.181,34.502 C223.382,34.418 223.556,34.299 223.705,34.146 C223.852,33.992 223.971,33.816 224.061,33.615 C224.151,33.414 224.195,33.197 224.195,32.965 C224.195,32.511 224.047,32.14 223.752,31.855 C223.456,31.569 223.084,31.345 222.634,31.181 C222.185,31.017 221.694,30.905 221.161,30.841 C220.626,30.777 220.128,30.745 219.662,30.745 C218.605,30.745 217.613,30.915 216.682,31.252 C215.752,31.591 214.89,32.077 214.098,32.711 L214.098,32.395 M191.197,32.395 C191.197,31.94 191.036,31.552 190.714,31.229 C190.391,30.907 190.002,30.745 189.548,30.745 C189.083,30.745 188.691,30.907 188.368,31.229 C188.045,31.552 187.884,31.94 187.884,32.395 L187.884,46.851 C187.884,47.305 188.045,47.693 188.368,48.016 C188.691,48.338 189.083,48.499 189.548,48.499 C190.002,48.499 190.391,48.338 190.714,48.016 C191.036,47.693 191.197,47.305 191.197,46.851 L191.197,39.623 C191.197,38.851 191.342,38.127 191.633,37.451 C191.923,36.775 192.32,36.185 192.822,35.683 C193.324,35.181 193.913,34.785 194.589,34.494 C195.266,34.204 195.989,34.059 196.761,34.059 C197.542,34.059 198.267,34.191 198.933,34.455 C199.197,34.571 199.429,34.629 199.631,34.629 C199.862,34.629 200.079,34.587 200.28,34.502 C200.48,34.418 200.655,34.299 200.803,34.146 C200.951,33.992 201.07,33.816 201.159,33.615 C201.25,33.414 201.294,33.197 201.294,32.965 C201.294,32.511 201.146,32.14 200.85,31.855 C200.554,31.569 200.183,31.345 199.732,31.181 C199.284,31.017 198.793,30.905 198.26,30.841 C197.725,30.777 197.226,30.745 196.761,30.745 C195.704,30.745 194.711,30.915 193.781,31.252 C192.851,31.591 191.99,32.077 191.197,32.711 L191.197,32.395 M171.098,39.052 C171.098,38.375 171.227,37.736 171.486,37.134 C171.745,36.531 172.102,36.003 172.556,35.549 C173.011,35.094 173.536,34.738 174.133,34.478 C174.731,34.22 175.372,34.09 176.059,34.09 C176.736,34.09 177.375,34.222 177.978,34.486 C178.58,34.75 179.106,35.107 179.555,35.557 C180.004,36.006 180.361,36.531 180.625,37.134 C180.888,37.736 181.021,38.375 181.021,39.052 L181.021,46.835 C181.021,47.3 181.183,47.694 181.504,48.016 C181.827,48.338 182.216,48.499 182.669,48.499 C183.124,48.499 183.513,48.338 183.835,48.016 C184.157,47.694 184.323,47.3 184.334,46.835 L184.334,39.052 C184.334,37.91 184.113,36.835 183.669,35.825 C183.225,34.817 182.622,33.94 181.861,33.194 C181.1,32.449 180.22,31.861 179.222,31.427 C178.223,30.994 177.168,30.777 176.059,30.777 C174.157,30.777 172.503,31.322 171.098,32.41 L171.098,24.801 C171.087,24.336 170.921,23.942 170.598,23.621 C170.276,23.298 169.888,23.137 169.434,23.137 C168.978,23.137 168.59,23.298 168.269,23.621 C167.946,23.942 167.785,24.336 167.785,24.801 L167.785,46.835 C167.785,47.3 167.946,47.694 168.269,48.016 C168.59,48.338 168.978,48.499 169.434,48.499 C169.898,48.499 170.291,48.338 170.615,48.016 C170.937,47.694 171.098,47.3 171.098,46.835 z M160.963,43.506 C160.551,43.517 160.187,43.654 159.869,43.919 C159.372,44.341 158.833,44.658 158.252,44.869 C157.671,45.081 157.031,45.186 156.335,45.186 C155.721,45.186 155.133,45.091 154.567,44.901 C154.001,44.711 153.484,44.444 153.013,44.101 C152.543,43.758 152.134,43.345 151.785,42.864 C151.437,42.384 151.172,41.853 150.993,41.271 L163.547,41.271 C164.012,41.271 164.405,41.115 164.728,40.803 C165.05,40.492 165.211,40.099 165.211,39.622 C165.211,38.396 164.994,37.258 164.561,36.206 C164.128,35.155 163.479,34.202 162.612,33.345 C160.857,31.613 158.765,30.745 156.335,30.745 C153.883,30.745 151.79,31.613 150.057,33.345 C148.324,35.078 147.457,37.171 147.457,39.622 C147.457,42.074 148.324,44.166 150.057,45.9 C151.79,47.633 153.883,48.499 156.335,48.499 C158.564,48.499 160.498,47.78 162.136,46.344 C162.453,46.016 162.612,45.62 162.612,45.155 C162.612,44.679 162.456,44.285 162.144,43.973 C161.832,43.662 161.439,43.506 160.963,43.506 M150.993,37.974 C151.162,37.392 151.421,36.862 151.769,36.381 C152.118,35.899 152.53,35.488 153.005,35.145 C153.482,34.801 154.004,34.534 154.575,34.343 C155.146,34.154 155.731,34.059 156.335,34.059 C156.937,34.059 157.521,34.154 158.086,34.343 C158.651,34.534 159.169,34.801 159.639,35.145 C160.109,35.488 160.522,35.899 160.876,36.381 C161.23,36.862 161.497,37.392 161.676,37.974 z M144.69,46.835 C144.69,47.3 144.529,47.694 144.206,48.016 C143.885,48.338 143.497,48.499 143.042,48.499 C142.577,48.499 142.187,48.338 141.869,48.016 C141.551,47.694 141.394,47.3 141.394,46.835 L141.394,37.815 C141.394,37.308 141.296,36.827 141.1,36.373 C140.905,35.919 140.637,35.519 140.299,35.176 C139.962,34.833 139.563,34.56 139.103,34.36 C138.644,34.159 138.149,34.058 137.621,34.058 C137.104,34.058 136.617,34.159 136.163,34.36 C135.708,34.56 135.309,34.831 134.966,35.168 C134.622,35.506 134.353,35.902 134.157,36.357 C133.962,36.811 133.864,37.298 133.864,37.815 L133.864,46.835 C133.864,47.3 133.703,47.694 133.381,48.016 C133.059,48.338 132.67,48.499 132.216,48.499 C131.75,48.499 131.357,48.338 131.034,48.016 C130.712,47.694 130.551,47.3 130.551,46.835 L130.551,37.815 C130.551,37.298 130.45,36.811 130.25,36.357 C130.049,35.902 129.78,35.506 129.442,35.168 C129.104,34.831 128.707,34.56 128.253,34.36 C127.799,34.159 127.312,34.058 126.794,34.058 C126.276,34.058 125.791,34.156 125.337,34.353 C124.882,34.547 124.482,34.817 124.139,35.16 C123.796,35.504 123.525,35.902 123.33,36.357 C123.135,36.811 123.038,37.298 123.038,37.815 L123.038,46.835 C123.038,47.3 122.877,47.694 122.553,48.016 C122.232,48.338 121.843,48.499 121.389,48.499 C120.924,48.499 120.53,48.338 120.208,48.016 C119.885,47.694 119.725,47.3 119.725,46.835 L119.725,32.395 C119.725,31.94 119.885,31.552 120.208,31.229 C120.53,30.907 120.919,30.745 121.373,30.745 C121.744,30.745 122.071,30.848 122.357,31.055 C122.641,31.261 122.837,31.533 122.942,31.871 C124.074,31.12 125.357,30.745 126.794,30.745 C127.852,30.745 128.844,30.954 129.774,31.372 C130.704,31.79 131.518,32.421 132.216,33.266 C133.684,31.585 135.487,30.745 137.621,30.745 C138.582,30.745 139.494,30.933 140.355,31.308 C141.217,31.684 141.967,32.19 142.606,32.83 C143.246,33.469 143.753,34.22 144.128,35.081 C144.502,35.943 144.69,36.854 144.69,37.815 z" fill="#86DD25"/>
  </g>
</svg>
