<?xml version="1.0" encoding="UTF-8"?><svg id="Layer_2" xmlns="http://www.w3.org/2000/svg" viewBox="0 0 1719.15 268.14"><defs><style>.cls-1{fill:#231f20;stroke-width:0px;}</style></defs><g id="Layer_1-2"><path class="cls-1" d="M240.78,0H27.36C12.27,0,0,12.28,0,27.37v213.42c0,15.09,12.27,27.36,27.36,27.36h213.42c15.09,0,27.36-12.27,27.36-27.36v-71.81c0-3.45-1.37-6.76-3.82-9.2-2.44-2.43-5.74-3.8-9.18-3.8,0,0-.02,0-.02,0h-1.06c-15.59,0-30.51-.67-44.34-1.99-25.91-2.83-44.56-11.06-45.85-20.14.53-4.62,7.56-9.3,14.14-12.21,12.5-5.35,26.4-7.15,38.36-8.21,10.45-.84,22.13-1.24,36.73-1.24h2.02s.02,0,.03,0c3.44,0,6.74-1.37,9.18-3.8,2.44-2.44,3.82-5.75,3.82-9.2V27.37C268.14,12.28,255.87,0,240.78,0ZM27.36,255.14c-.5,0-.99-.03-1.47-.07.48.05.97.07,1.47.07h0ZM25.89,13.08c.48-.05.97-.07,1.47-.07h0c-.5,0-.99.03-1.47.07Z"/><path class="cls-1" d="M1614.87,83.76c1.29,9.08,19.94,17.31,45.86,20.14,13.82,1.33,28.74,2,44.34,2h1.06s.01-.01.02-.01c3.44,0,6.75,1.37,9.18,3.8,2.45,2.44,3.82,5.75,3.82,9.2v30.36c0,3.46-1.37,6.77-3.82,9.21-2.43,2.43-5.74,3.79-9.18,3.79h-2.04c-14.61,0-26.29.4-36.75,1.24-11.96,1.06-25.85,2.86-38.35,8.21-6.58,2.9-13.61,7.58-14.14,12.21,1.29,9.08,19.94,17.31,45.85,20.14,13.83,1.32,28.75,2,44.35,2h1.06s.01-.01.02-.01c3.44,0,6.75,1.37,9.18,3.8,2.45,2.44,3.82,5.75,3.82,9.2v21.74c0,15.09-12.27,27.36-27.36,27.36h-213.42c-15.09,0-27.36-12.27-27.36-27.36V27.37c0-15.09,12.27-27.37,27.36-27.37h213.42c15.09,0,27.36,12.28,27.36,27.37v21.73c0,3.46-1.37,6.77-3.82,9.21-2.43,2.43-5.74,3.79-9.18,3.79h-2.05c-14.61,0-26.28.4-36.73,1.24-11.96,1.06-25.86,2.86-38.36,8.21-6.58,2.9-13.61,7.58-14.14,12.21Z"/><path class="cls-1" d="M1337.01,188.78c-2.6,6.71-4.26,15-1.35,18.66,1.13.87,2.98,1.83,6.32,1.83,9.5,0,24.95-7.68,40.33-20.03,8.12-6.7,16.41-14.1,24.64-22,2.47-2.37,5.71-3.62,9-3.62,1.72,0,3.46.35,5.1,1.05,4.79,2.04,7.9,6.75,7.9,11.95v64.16c0,15.09-12.27,27.36-27.36,27.36h-213.42c-15.09,0-27.36-12.27-27.36-27.36v-48.76c0-4.11,1.95-7.98,5.25-10.43,10.18-7.56,19.81-16.64,28.31-24.66l.69-.65c12.15-11.87,24.97-24.58,36.38-38,7.71-9.2,16.27-20.3,21.32-32.92,2.6-6.7,4.26-14.99,1.35-18.64-1.13-.87-2.98-1.83-6.32-1.83-9.5,0-24.95,7.67-40.34,20.02-8.13,6.72-16.42,14.13-24.64,22.01-2.47,2.37-5.71,3.62-9,3.62-1.72,0-3.46-.35-5.1-1.05-4.79-2.04-7.9-6.75-7.9-11.96V27.37c0-15.09,12.27-27.37,27.36-27.37h213.42c15.09,0,27.36,12.28,27.36,27.37v54.76c0,4.12-1.95,8-5.26,10.45-9.98,7.39-19.45,16.31-27.8,24.18l-1.18,1.12c-11.61,11.32-24.93,24.52-36.38,37.98-7.71,9.2-16.26,20.3-21.32,32.92Z"/><path class="cls-1" d="M821.18,0h-213.42c-15.09,0-27.36,12.27-27.36,27.36v213.42c0,15.09,12.27,27.36,27.36,27.36h213.42c15.09,0,27.36-12.27,27.36-27.36V27.37C848.54,12.28,836.27,0,821.18,0ZM777.8,88.3c-5.05,12.61-13.6,23.72-21.31,32.92-11.47,13.47-24.79,26.67-36.39,37.99l-.82.77c-17.12,16.15-40.54,38.24-62.55,40.31-.37.02-.73.03-1.07.03-3,0-5.02-.66-5.98-1.97-1.53-2.07-2.17-7.1-.16-13.67,0-.02.01-.04.02-.06,4.14-13.8,13.34-26.12,22.68-37.37,20.28-23.14,40.56-43.12,60.29-59.4,15.38-12.36,30.83-20.03,40.33-20.03,3.35,0,5.16.92,6.34,1.84,2.89,3.66,1.23,11.93-1.37,18.63Z"/><path class="cls-1" d="M530.98,0h-213.42c-15.09,0-27.36,12.27-27.36,27.36v213.42c0,15.09,12.27,27.36,27.36,27.36h55.93c6.93,0,12.65-5.44,12.98-12.37.96-19.68,3.55-44.05,15.21-58.11,1.29-1.43,3.65-3.66,5.81-3.66,2.52,0,6.83,3,10.33,9.58.01.02.02.04.03.06,6.84,12.71,9.04,27.91,10.39,42.46.23,3.47.41,6.64.57,9.69.35,6.92,6.06,12.34,12.98,12.34h103.55c7.18,0,13-5.82,13-13v-.56c0-3.71-1.58-7.24-4.35-9.71-10.53-9.38-20.58-19.39-32.41-31.52l-.8-.85c-16.14-17.11-38.22-40.54-40.28-62.53-.1-1.88,0-5.07,1.45-6.62,1.12-1.19,3.46-1.87,6.43-1.87h0c2.35,0,5.02.44,7.73,1.27.02,0,.04.01.07.02,13.84,4.16,26.14,13.35,37.37,22.69,1.05.92,2.1,1.84,3.15,2.78,2.43,2.17,5.53,3.3,8.66,3.3,1.8,0,3.61-.37,5.31-1.14,4.68-2.09,7.69-6.74,7.69-11.87V27.37C558.34,12.28,546.07,0,530.98,0ZM453.62,82.93c-5.69,1.27-11.5,1.92-17.26,1.92-10.78,0-20.63-2.29-28.5-6.61-.05-.03-.1-.06-.16-.08-2.99-1.59-5.75-4.59-6.34-6.03,0-.05,0-.11,0-.16.68-1.59,4.09-4.93,7.72-6.55.08-.04.16-.07.24-.11,7.62-3.59,16.77-5.49,26.45-5.49,5.98,0,11.97.71,17.8,2.1,13.8,3.63,18.26,9.21,18.25,10.73-.02,1.53-4.53,7.04-18.19,10.29Z"/><path class="cls-1" d="M1111.38,0h-213.42c-15.09,0-27.36,12.27-27.36,27.36v213.42c0,15.09,12.27,27.36,27.36,27.36h213.42c15.09,0,27.36-12.27,27.36-27.36V27.37c0-15.09-12.27-27.36-27.36-27.36ZM1068,88.31c-5.05,12.61-13.6,23.71-21.31,32.92-11.47,13.47-24.79,26.67-36.39,37.99l-.82.77c-17.12,16.15-40.54,38.24-62.55,40.31-.37.02-.73.03-1.07.03-3,0-5.02-.66-5.98-1.97-1.53-2.07-2.17-7.1-.16-13.67,0-.02.01-.04.02-.06,4.14-13.8,13.34-26.12,22.68-37.37,20.28-23.13,40.56-43.12,60.29-59.4,15.38-12.36,30.83-20.03,40.33-20.03,3.35,0,5.16.92,6.34,1.84,2.89,3.66,1.23,11.94-1.37,18.64Z"/></g></svg>